# xmcd
#
# Track frame offsets: 
#        150
#        11641
#        20984
#        34794
#        49549
#        60775
#        79053
#        91949
#        105212
#        115408
#        127891
#        136904
#        148489
#        161862
#        169955
#
# Disc length: 2469 seconds
#
# Revision: 0
# Processed by: cddbd v1.5.2PL0 Copyright (c) Steve Scherf et al.
# Submitted via: ExactAudioCopy v0.99pb5
#
DISCID=c409a30f
DTITLE=Various Artist - Sixties - The Definitive Collection [CD 2 Of 3)
DYEAR=2010
DGENRE=Oldies
TTITLE0=Johnny Tillotson - Poetry In Motion
TTITLE1=Frank Ifield - I Remember You
TTITLE2=Gary Pucket and The Union Gap - Young Girl
TTITLE3=The Herd - From The Underworld
TTITLE4=Paul and Paula - Hey Paula
TTITLE5=Family Dog - A Way Of Life
TTITLE6=Dobie Gray - The 'In' Crowd
TTITLE7=The Foundations - Build Me Up, Buttercup
TTITLE8=Clarence 'Frogman' Henry - But I Do
TTITLE9=Vanity Fare - Early In The Morning
TTITLE10=The Pretty Thigs - Honey, I Need
TTITLE11=Cripsian St. Peters - The Pied Piper
TTITLE12=The Artwoods - Brother, Can You Spare A Dime?
TTITLE13=Duffy Power - Lawdy Miss Clawdy
TTITLE14=Cal Tjader - Walk On By
EXTD=
EXTT0=
EXTT1=
EXTT2=
EXTT3=
EXTT4=
EXTT5=
EXTT6=
EXTT7=
EXTT8=
EXTT9=
EXTT10=
EXTT11=
EXTT12=
EXTT13=
EXTT14=
PLAYORDER=
